# This file uses centimeters as units for non-parametric coordinates.

mtllib Pillar_High.mtl
g default
v -100.000000 0.000000 100.000000
v 0.000000 0.000000 100.000000
v -100.000000 400.000000 100.000000
v 0.000000 400.000000 100.000000
v -100.000000 400.000000 0.000000
v 0.000000 400.000000 0.000000
v -100.000000 0.000000 0.000000
v 0.000000 0.000000 0.000000
v -100.000000 123.301575 100.000000
v 0.000000 123.301575 100.000000
v 0.000000 276.698425 100.000000
v -100.000000 276.698425 100.000000
v -100.000000 276.698425 0.000000
v 0.000000 276.698425 0.000000
v 0.000000 123.301575 0.000000
v -100.000000 123.301575 0.000000
v -93.796143 132.818069 93.796143
v -6.203857 132.818069 93.796143
v -6.203857 267.181946 93.796143
v -93.796143 267.181946 93.796143
v -93.797852 267.181946 6.203857
v -6.205566 267.181946 6.203857
v -6.205566 132.818069 6.203857
v -93.797852 132.818069 6.203857
vt 0.500000 0.125000
vt 0.500000 0.375000
vt 0.500000 0.625000
vt 0.500000 0.875000
vt 0.750000 0.125000
vt 0.250000 0.125000
vt 0.500000 0.000000
vt 0.500000 1.000000
vt 0.625000 0.125000
vt 0.500000 0.250000
vt 0.375000 0.125000
vt 0.625000 0.375000
vt 0.750000 0.250000
vt 0.500000 0.500000
vt 0.500000 0.125000
vt 0.500000 0.375000
vt 0.500000 0.625000
vt 0.500000 0.875000
vt 0.250000 0.125000
vt 0.750000 0.125000
vt 0.500000 0.000000
vt 0.500000 1.000000
vt 0.375000 0.125000
vt 0.625000 0.375000
vt 0.750000 0.250000
vt 0.500000 0.500000
vt 0.500000 0.125000
vt 0.500000 0.375000
vt 0.500000 0.625000
vt 0.500000 0.875000
vt 0.250000 0.125000
vt 0.750000 0.125000
vt 0.500000 0.000000
vt 0.500000 1.000000
vt 0.375000 0.125000
vt 0.625000 0.375000
vt 0.750000 0.250000
vt 0.500000 0.500000
vn 0.000000 0.000000 1.000000
vn 0.000000 0.000000 1.000000
vn 0.000000 0.000000 1.000000
vn 0.000000 0.000000 1.000000
vn 0.000000 1.000000 0.000000
vn 0.000000 1.000000 0.000000
vn 0.000000 1.000000 0.000000
vn 0.000000 1.000000 0.000000
vn 0.000000 0.000000 -1.000000
vn 0.000000 0.000000 -1.000000
vn 0.000000 0.000000 -1.000000
vn 0.000000 0.000000 -1.000000
vn 0.000000 -1.000000 0.000000
vn 0.000000 -1.000000 0.000000
vn 0.000000 -1.000000 0.000000
vn 0.000000 -1.000000 0.000000
vn 1.000000 0.000000 -0.000020
vn 1.000000 0.000000 -0.000020
vn 1.000000 0.000000 -0.000020
vn 1.000000 0.000000 -0.000020
vn -1.000000 0.000000 0.000020
vn -1.000000 0.000000 0.000020
vn -1.000000 0.000000 0.000020
vn -1.000000 0.000000 0.000020
vn 0.000000 0.000000 1.000000
vn 0.000000 0.000000 1.000000
vn 0.000000 0.000000 1.000000
vn 0.000000 0.000000 1.000000
vn 0.000000 0.000000 1.000000
vn 0.000000 0.000000 1.000000
vn 0.000000 0.000000 1.000000
vn 0.000000 0.000000 1.000000
vn 0.000000 0.000000 -1.000000
vn 0.000000 0.000000 -1.000000
vn 0.000000 0.000000 -1.000000
vn 0.000000 0.000000 -1.000000
vn 0.000000 0.000000 -1.000000
vn 0.000000 0.000000 -1.000000
vn 0.000000 0.000000 -1.000000
vn 0.000000 0.000000 -1.000000
vn 1.000000 0.000000 0.000000
vn 1.000000 0.000000 0.000000
vn 1.000000 0.000000 0.000000
vn 1.000000 0.000000 0.000000
vn 1.000000 0.000000 0.000000
vn 1.000000 0.000000 0.000000
vn 1.000000 0.000000 0.000000
vn 1.000000 0.000000 0.000000
vn -1.000000 0.000000 0.000000
vn -1.000000 0.000000 0.000000
vn -1.000000 0.000000 0.000000
vn -1.000000 0.000000 0.000000
vn -1.000000 0.000000 0.000000
vn -1.000000 0.000000 0.000000
vn -1.000000 0.000000 0.000000
vn -1.000000 0.000000 0.000000
vn 0.000000 0.546110 0.837713
vn 0.000000 0.546110 0.837713
vn 0.000000 0.546110 0.837713
vn 0.000000 0.546110 0.837713
vn 0.000000 -0.546112 0.837713
vn 0.000000 -0.546112 0.837713
vn 0.000000 -0.546112 0.837713
vn 0.000000 -0.546112 0.837713
vn 0.000000 -0.546112 -0.837712
vn 0.000000 -0.546112 -0.837713
vn 0.000000 -0.546112 -0.837712
vn 0.000000 -0.546112 -0.837713
vn 0.000000 0.546110 -0.837713
vn 0.000000 0.546110 -0.837713
vn 0.000000 0.546110 -0.837713
vn 0.000000 0.546110 -0.837713
vn 0.837679 0.546163 -0.000008
vn 0.837679 0.546163 -0.000008
vn 0.837679 0.546163 -0.000008
vn 0.837679 0.546163 -0.000008
vn 0.837679 -0.546164 -0.000008
vn 0.837679 -0.546164 -0.000008
vn 0.837679 -0.546164 -0.000008
vn 0.837679 -0.546164 -0.000008
vn -0.837748 0.546057 0.000008
vn -0.837748 0.546057 0.000008
vn -0.837748 0.546057 0.000008
vn -0.837748 0.546057 0.000008
vn -0.837748 -0.546058 0.000008
vn -0.837748 -0.546058 0.000008
vn -0.837748 -0.546058 0.000008
vn -0.837748 -0.546058 0.000008
s off
g polySurface83 polySurface82
usemtl initialShadingGroup
f 17/27/1 18/28/2 19/29/3 20/30/4
f 3/4/5 4/3/6 6/5/7 5/6/8
f 21/31/9 22/32/10 23/33/11 24/34/12
f 7/8/13 8/7/14 2/9/15 1/10/16
f 18/28/17 23/35/18 22/36/19 19/29/20
f 24/37/21 17/27/22 20/30/23 21/38/24
f 1/1/25 2/2/26 10/16/27 9/15/28
f 4/3/29 3/4/30 12/18/31 11/17/32
f 5/6/33 6/5/34 14/20/35 13/19/36
f 8/7/37 7/8/38 16/22/39 15/21/40
f 2/2/41 8/11/42 15/23/43 10/16/44
f 6/12/45 4/3/46 11/17/47 14/24/48
f 7/13/49 1/1/50 9/15/51 16/25/52
f 3/4/53 5/14/54 13/26/55 12/18/56
f 9/15/57 10/16/58 18/28/59 17/27/60
f 11/17/61 12/18/62 20/30/63 19/29/64
f 13/19/65 14/20/66 22/32/67 21/31/68
f 15/21/69 16/22/70 24/34/71 23/33/72
f 10/16/73 15/23/74 23/35/75 18/28/76
f 14/24/77 11/17/78 19/29/79 22/36/80
f 16/25/81 9/15/82 17/27/83 24/37/84
f 12/18/85 13/26/86 21/38/87 20/30/88
